<svg width="15" height="14" viewBox="0 0 15 14" fill="none" xmlns="http://www.w3.org/2000/svg">
<path d="M7.57214 6.52522C5.26859 6.52522 2.96629 6.52398 0.662736 6.52769C0.525843 6.52769 0.492241 6.50048 0.507175 6.35947C0.60549 5.35262 0.909146 4.41256 1.41316 3.53434C1.46543 3.44405 1.5177 3.40323 1.6297 3.40323C5.6046 3.40694 9.57826 3.40694 13.5532 3.40323C13.6564 3.40323 13.7112 3.43415 13.7622 3.52321C14.2712 4.40019 14.5711 5.34149 14.6744 6.34834C14.6881 6.48564 14.6645 6.52893 14.5114 6.52893C12.1979 6.52275 9.8844 6.52522 7.57214 6.52522Z" fill="#E9373A"/>
<path d="M7.60407 7.47396C9.90762 7.47396 12.2112 7.47519 14.5135 7.47025C14.6516 7.47025 14.6889 7.50488 14.6753 7.64094C14.5745 8.65893 14.2671 9.60888 13.7531 10.4945C13.6946 10.5947 13.6212 10.5935 13.5303 10.5935C9.71473 10.5922 5.89912 10.5935 2.08352 10.5935C1.95409 10.5935 1.82342 10.5823 1.69524 10.5959C1.54092 10.612 1.45879 10.5527 1.38287 10.4191C0.892543 9.54333 0.598843 8.60945 0.501773 7.61373C0.489328 7.48261 0.542841 7.47396 0.648622 7.47396C2.96711 7.47396 5.28559 7.47396 7.60407 7.47396Z" fill="#FDD738"/>
<path d="M12.9742 11.552C10.3122 14.7482 5.03932 14.8831 2.20312 11.552C5.79597 11.552 9.37885 11.552 12.9742 11.552Z" fill="#119448"/>
<path d="M12.9568 2.45084C9.37764 2.45084 5.79849 2.45084 2.17578 2.45084C3.54472 0.955402 5.19864 0.109348 7.19978 0.0103939C9.50458 -0.10464 11.4223 0.737704 12.9755 2.41126C12.9692 2.42363 12.963 2.43723 12.9568 2.45084Z" fill="#3098D4"/>
</svg>
