<svg width="157" height="61" viewBox="0 0 157 61" fill="none" xmlns="http://www.w3.org/2000/svg">
<path d="M100.451 50.5407C100.437 50.1259 100.276 49.802 99.9625 49.5691C99.6524 49.3362 99.222 49.2197 98.6749 49.2197C97.7411 49.2197 97.2706 49.5036 97.2706 50.0749C97.2706 50.2314 97.3471 50.3806 97.504 50.5225C97.6608 50.6644 97.8761 50.7845 98.1569 50.8828C98.4378 50.981 98.6931 51.0611 98.9266 51.1266C99.16 51.1921 99.4226 51.254 99.7144 51.3122C100.006 51.3704 100.178 51.4068 100.232 51.4177C100.78 51.5596 101.246 51.6979 101.637 51.8253C102.027 51.9563 102.45 52.1382 102.902 52.3784C103.358 52.6186 103.723 52.8842 104.004 53.1754C104.285 53.4665 104.522 53.8376 104.715 54.2852C104.909 54.7328 105.007 55.235 105.007 55.7918C105.007 57.2292 104.46 58.3755 103.369 59.2234C102.279 60.0713 100.801 60.497 98.9448 60.497C97.0079 60.497 95.4832 60.0531 94.3634 59.1652C93.2473 58.2772 92.6746 57.0618 92.649 55.5189H96.9167C96.9824 56.7125 97.701 57.3093 99.0798 57.3093C99.6123 57.3093 100.035 57.2037 100.345 57C100.656 56.7925 100.812 56.5123 100.812 56.163C100.812 55.941 100.721 55.7554 100.539 55.5989C100.371 55.457 100.046 55.3005 99.5649 55.1331C99.0834 54.9657 98.5144 54.7874 97.8578 54.5982C97.2012 54.409 96.7891 54.2852 96.6213 54.2197C96.0632 54.0269 95.6 53.8377 95.2388 53.6557C94.8741 53.4737 94.5239 53.2372 94.1847 52.9461C93.8454 52.655 93.5974 52.2983 93.4333 51.8762C93.2691 51.4541 93.1889 50.9592 93.1889 50.3879C93.1889 49.0924 93.7068 48.0443 94.7391 47.2474C95.7714 46.4505 97.1283 46.0502 98.8025 46.0502C100.568 46.0502 101.943 46.4432 102.924 47.2256C103.906 48.008 104.409 49.1142 104.434 50.5407H100.451Z" fill="#273974"/>
<path d="M122.672 60.1878H118.678V58.1062C118.678 55.6572 118.729 53.0298 118.835 50.2314L116.223 60.1878H113.046L110.416 50.2314C110.508 52.3311 110.559 54.762 110.573 57.524L110.592 60.1878H106.597V46.345H112.696L113.594 49.944C114.06 51.8763 114.418 53.6266 114.666 55.195C114.859 54.0815 115.25 52.2984 115.837 49.8493L116.694 46.3486H122.676L122.672 60.1878Z" fill="#273974"/>
<path d="M129.202 60.1878H124.952V46.345H129.202V60.1878Z" fill="#273974"/>
<path d="M142.829 49.9003H138.93V60.1877H134.68V49.9003H130.803V46.3413H142.829V49.9003Z" fill="#273974"/>
<path d="M157 60.1878H152.751V54.7256H148.735V60.1878H144.467V46.345H148.735V50.992H152.751V46.345H157V60.1878Z" fill="#273974"/>
<path d="M66.2477 19.1615C59.7222 19.1615 53.2002 19.1578 46.6747 19.1688C46.288 19.1688 46.1932 19.0887 46.2333 18.6884C46.5142 15.8099 47.3714 13.1207 48.8012 10.6098C48.9471 10.3514 49.1003 10.235 49.414 10.235C60.6742 10.2459 71.9307 10.2459 83.1908 10.235C83.4826 10.235 83.6358 10.326 83.7854 10.5807C85.2262 13.088 86.0761 15.7808 86.3679 18.6557C86.408 19.0487 86.3387 19.1724 85.9046 19.1724C79.3535 19.1542 72.8024 19.1615 66.2477 19.1615Z" fill="#E9373A"/>
<path d="M66.3353 21.8763C72.8608 21.8763 79.3827 21.8799 85.9083 21.8654C86.3022 21.8654 86.408 21.9636 86.3679 22.353C86.0797 25.2606 85.2116 27.9789 83.7562 30.5116C83.592 30.7991 83.3805 30.7955 83.1252 30.7955C72.3173 30.7918 61.5095 30.7955 50.698 30.7955C50.3332 30.7955 49.9612 30.7664 49.6001 30.8028C49.1623 30.8501 48.9289 30.679 48.7173 30.2969C47.3276 27.7933 46.496 25.1259 46.2224 22.2766C46.1859 21.9017 46.3391 21.8763 46.6382 21.8763C53.2039 21.8763 59.7696 21.8763 66.3353 21.8763Z" fill="#FDD738"/>
<path d="M81.5457 33.5356C74.0062 42.6732 59.0656 43.0589 51.0336 33.5356C61.2104 33.5356 71.358 33.5356 81.5457 33.5356Z" fill="#119448"/>
<path d="M81.4983 7.51304C71.358 7.51304 61.2177 7.51304 50.957 7.51304C54.8344 3.2372 59.5215 0.817262 65.1899 0.533419C71.7191 0.205908 77.154 2.61129 81.553 7.39659C81.5348 7.43662 81.5166 7.47301 81.4983 7.51304Z" fill="#3098D4"/>
<path d="M145.714 14.5545H135.257C135.311 14.5509 135.37 14.5509 135.435 14.5509C138.86 14.5545 142.289 14.5545 145.714 14.5545Z" fill="#273974"/>
<path d="M149.471 14.5544V26.4103H134.786C135.505 23.3026 135.643 19.9657 135.195 16.4358C135.114 15.7953 135.009 15.1694 134.881 14.5544H145.714C146.499 14.5544 147.279 14.5581 148.06 14.5544H149.471Z" fill="#273974"/>
<path d="M157 0.511597V12.3675H156.548C149.289 12.3566 142.027 12.3566 134.764 12.3675H134.327C132.838 7.49122 129.833 3.46647 125.466 0.511597H157Z" fill="#273974"/>
<path d="M129.114 28.5538C129.096 28.5938 129.078 28.6375 129.059 28.6775C127.228 32.8696 124.398 35.9482 120.655 37.957C119.302 38.6811 117.828 39.2706 116.238 39.7182C113.612 40.457 110.282 40.3805 106.999 40.4279C106.685 40.4315 106.422 40.4351 106.247 40.4351V28.6702H106.612V28.6739H106.674C108.1 28.6811 109.53 28.7102 110.949 28.5101C112.109 28.35 113.236 28.0771 114.305 27.5931C116.271 26.6942 117.599 25.2168 118.193 23.1244C118.686 21.3922 118.74 19.6346 118.365 17.8769C117.763 15.0821 115.943 13.441 113.291 12.6295C111.916 12.2037 110.5 12.0327 109.071 12.0108C107.684 11.989 106.298 12.0254 104.912 11.9963C104.825 11.9926 104.752 11.9999 104.693 12.0145C104.485 12.0545 104.449 12.1964 104.449 12.4839C104.449 13.7357 104.453 14.9875 104.449 16.2394C104.456 22.3493 104.456 28.4592 104.456 34.5727V39.7692C104.456 39.882 104.46 39.9693 104.46 40.0421V40.4279H92.6563V39.8311C92.66 38.0771 92.6636 36.3267 92.6636 34.5727C92.6709 29.8456 92.6673 25.1222 92.6673 20.3951V16.2394H92.6563V0.504272H93.1488C96.0522 0.515189 98.9557 0.504272 101.863 0.504272C102.804 0.504272 103.749 0.504272 104.693 0.51155C106.138 0.515189 107.582 0.522468 109.027 0.540663C113.079 0.595248 117.026 1.27938 120.655 3.16439C120.779 3.22989 120.9 3.29539 121.024 3.3609C124.985 5.51519 127.783 8.50282 129.315 12.3638C129.884 13.7976 130.274 15.3514 130.489 17.0327C130.993 20.9846 130.697 24.8747 129.114 28.5538Z" fill="#273974"/>
<path d="M157 28.6775V40.5334H156.646C146.553 40.5225 126.291 40.5152 126.163 40.5043C127.557 39.3034 128.786 38.0407 129.909 36.6797C131.675 34.5363 132.984 32.1382 133.845 29.5035C133.849 29.4963 133.849 29.4926 133.852 29.4854C133.929 29.2852 134.002 29.0778 134.075 28.874V28.8704C134.097 28.8049 134.119 28.743 134.144 28.6775H157Z" fill="#273974"/>
<path d="M10.268 38.1134C7.16753 36.5014 4.67987 34.1724 2.80865 31.1302C0.937433 28.088 0 24.5509 0 20.5188C0 16.4868 0.937433 12.9497 2.80865 9.90748C4.67987 6.86526 7.16753 4.5363 10.268 2.92421C13.3685 1.31213 16.7024 0.504272 20.2661 0.504272C23.476 0.504272 26.4597 1.14474 29.2246 2.42931C31.9858 3.71388 34.3239 5.57341 36.2316 8.01155C38.1393 10.4497 39.4306 13.3354 40.109 16.6724H28.5023C27.8604 14.9111 26.8354 13.5101 25.4274 12.4657C24.0194 11.4213 22.3343 10.8973 20.3755 10.8973C18.6648 10.8973 17.1328 11.3012 15.7759 12.1054C14.419 12.9133 13.3612 14.0487 12.5952 15.5152C11.8292 16.9817 11.4462 18.6484 11.4462 20.5188C11.4462 22.3893 11.8292 24.0559 12.5952 25.5225C13.3612 26.989 14.4226 28.1244 15.7759 28.9322C17.1291 29.7401 18.6648 30.1404 20.3755 30.1404C22.4072 30.1404 24.1289 29.6164 25.5368 28.572C26.9448 27.5276 27.9516 26.1265 28.5571 24.3653H40.2148C39.5363 27.7022 38.2378 30.588 36.3119 33.0261C34.3859 35.4642 32.0332 37.3238 29.2538 38.6084C26.4743 39.8893 23.4796 40.5334 20.2697 40.5334C16.7024 40.5334 13.3685 39.7292 10.268 38.1134Z" fill="#273974"/>
</svg>
